<svg width="32" viewBox="0 0 32 32" preserveAspectRatio="xMidYMid meet" xmlns="http://www.w3.org/2000/svg" focusable="false" data-di-rand="1656039790601"><g><path d="M1,7h30c0.552,0,1-0.448,1-1c0-0.552-0.448-1-1-1H1C0.448,5,0,5.448,0,6C0,6.552,0.448,7,1,7z" fill="#FFF"></path><path d="M31,15H1c-0.552,0-1,0.448-1,1c0,0.552,0.448,1,1,1h30c0.552,0,1-0.448,1-1C32,15.448,31.552,15,31,15z" fill="#FFF"></path><path d="M31,25H1c-0.552,0-1,0.448-1,1c0,0.552,0.448,1,1,1h30c0.552,0,1-0.448,1-1C32,25.448,31.552,25,31,25z" fill="#FFF"></path></g></svg>