<svg width="37" height="37" viewBox="0 0 37 37" fill="none" xmlns="http://www.w3.org/2000/svg">
<path fill-rule="evenodd" clip-rule="evenodd" d="M23.6551 22.4951C23.6441 22.5051 23.5371 22.6111 23.5271 22.6221C22.1871 23.9621 21.9921 26.2301 21.9841 27.3341H14.8021C14.8551 25.9251 14.3051 23.6851 13.1961 22.5791C11.5311 21.1121 10.5381 18.9021 10.5381 16.6671C10.5381 12.3321 14.0651 8.80512 18.4001 8.80512C22.7351 8.80512 26.2621 12.3321 26.2621 16.6671C26.2621 18.8571 25.3121 20.9811 23.6551 22.4951ZM18.4001 6.80511C12.9621 6.80511 8.53809 11.2281 8.53809 16.6671C8.53809 19.5101 9.75409 22.2121 11.8271 24.0361C12.7101 24.9191 12.8331 27.0191 12.7911 27.5961C12.7821 27.6501 12.7781 27.7051 12.7781 27.7611C12.7781 28.2111 12.9261 28.5771 13.2281 28.8801C13.5071 29.1601 13.9251 29.3341 14.3201 29.3341H22.4481C22.8601 29.3341 23.2471 29.1741 23.5401 28.8801C23.8221 28.5971 23.9901 28.1791 23.9891 27.7121C23.9511 26.7381 24.1091 24.8671 25.0041 23.9721C27.0741 22.0801 28.2621 19.4171 28.2621 16.6671C28.2621 11.2281 23.8381 6.80511 18.4001 6.80511Z" fill="#0075BE"/>
<path fill-rule="evenodd" clip-rule="evenodd" d="M22.2073 30.792H14.5923C14.0403 30.792 13.5923 31.239 13.5923 31.792C13.5923 32.345 14.0403 32.792 14.5923 32.792H22.2073C22.7593 32.792 23.2073 32.345 23.2073 31.792C23.2073 31.239 22.7593 30.792 22.2073 30.792Z" fill="#0075BE"/>
<path fill-rule="evenodd" clip-rule="evenodd" d="M20.8625 34.209H15.9375C15.3845 34.209 14.9375 34.656 14.9375 35.209C14.9375 35.762 15.3845 36.209 15.9375 36.209H20.8625C21.4145 36.209 21.8625 35.762 21.8625 35.209C21.8625 34.656 21.4145 34.209 20.8625 34.209Z" fill="#0075BE"/>
<path fill-rule="evenodd" clip-rule="evenodd" d="M7.55699 10.4883L5.04999 8.84132C4.58899 8.53732 3.96899 8.66632 3.66399 9.12832C3.36099 9.58932 3.48999 10.2093 3.95099 10.5123L6.45799 12.1603C6.62799 12.2713 6.81799 12.3243 7.00699 12.3243C7.33199 12.3243 7.65099 12.1663 7.84399 11.8733C8.14699 11.4123 8.01799 10.7923 7.55699 10.4883Z" fill="#0075BE"/>
<path fill-rule="evenodd" clip-rule="evenodd" d="M10.842 6.707C11.039 6.96 11.334 7.093 11.632 7.093C11.847 7.093 12.063 7.024 12.245 6.882C12.681 6.543 12.76 5.915 12.421 5.478L10.579 3.11C10.239 2.675 9.61101 2.595 9.17601 2.936C8.74001 3.274 8.66101 3.902 9.00001 4.339L10.842 6.707Z" fill="#0075BE"/>
<path fill-rule="evenodd" clip-rule="evenodd" d="M18.3865 5C18.9385 5 19.3865 4.553 19.3865 4V1C19.3865 0.447 18.9385 0 18.3865 0C17.8345 0 17.3865 0.447 17.3865 1V4C17.3865 4.553 17.8345 5 18.3865 5Z" fill="#0075BE"/>
<path fill-rule="evenodd" clip-rule="evenodd" d="M25.1462 6.6846C25.4442 6.6846 25.7392 6.5516 25.9362 6.2986L27.7782 3.9306C28.1172 3.4946 28.0382 2.8666 27.6022 2.5276C27.1672 2.1866 26.5372 2.2656 26.1992 2.7026L24.3572 5.0706C24.0182 5.5066 24.0972 6.1346 24.5332 6.4736C24.7152 6.6166 24.9312 6.6846 25.1462 6.6846Z" fill="#0075BE"/>
<path fill-rule="evenodd" clip-rule="evenodd" d="M33.1575 9.12789C32.8545 8.66589 32.2345 8.53689 31.7725 8.84089L29.2645 10.4879C28.8035 10.7919 28.6755 11.4119 28.9785 11.8729C29.1705 12.1659 29.4895 12.3239 29.8155 12.3239C30.0035 12.3239 30.1945 12.2719 30.3635 12.1599L32.8705 10.5129C33.3325 10.2089 33.4605 9.58889 33.1575 9.12789Z" fill="#0075BE"/>
<path fill-rule="evenodd" clip-rule="evenodd" d="M21.1486 12.0772C20.6856 11.7732 20.0666 11.9062 19.7646 12.3702C19.4636 12.8332 19.5946 13.4522 20.0576 13.7532C20.6736 14.1542 21.2016 14.6982 21.5836 15.3282C22.0426 16.0862 22.2856 16.9562 22.2856 17.8432C22.2856 18.3952 22.7336 18.8432 23.2856 18.8432C23.8376 18.8432 24.2856 18.3952 24.2856 17.8432C24.2856 16.5902 23.9426 15.3622 23.2936 14.2912C22.7566 13.4062 22.0146 12.6402 21.1486 12.0772Z" fill="#0075BE"/>
</svg>
