<svg width="24" height="24" viewBox="0 0 24 24" fill="none" xmlns="http://www.w3.org/2000/svg">
<path d="M8.44005 19C8.29899 18.9971 8.16013 18.9645 8.0326 18.9042C7.90506 18.8438 7.79173 18.7572 7.70005 18.65L3.24005 13.46C3.15469 13.3602 3.08983 13.2445 3.04916 13.1197C3.00849 12.9948 2.99282 12.8631 3.00303 12.7322C3.02366 12.4678 3.14849 12.2224 3.35005 12.05C3.55161 11.8776 3.81341 11.7923 4.07783 11.813C4.34226 11.8336 4.58766 11.9584 4.76005 12.16L8.49005 16.51L19.2801 5.30998C19.4677 5.14122 19.7122 5.04966 19.9646 5.05365C20.2169 5.05765 20.4584 5.15692 20.6406 5.33154C20.8229 5.50616 20.9323 5.74322 20.947 5.99517C20.9618 6.24712 20.8807 6.49532 20.72 6.68998L9.16005 18.69C9.0671 18.7875 8.95542 18.8652 8.83169 18.9185C8.70797 18.9717 8.57475 18.9995 8.44005 19Z" fill="#0075BE"/>
</svg>
