<svg width="13" height="16" viewBox="0 0 13 16" fill="none" xmlns="http://www.w3.org/2000/svg">
<g clip-path="url(#clip0_11_74)">
<path fill-rule="evenodd" clip-rule="evenodd" d="M1.7001 14.4H11.3001V8H1.7001V14.4ZM4.1001 4.3552C4.1001 1.9272 5.3137 1.6 6.5001 1.6C7.6865 1.6 8.9001 1.9272 8.9001 4.3552V6.4H4.1001V4.3552ZM12.1001 6.4H10.5001V4.3552C10.5001 1.5472 9.0801 0 6.5001 0C3.9201 0 2.5001 1.5472 2.5001 4.3552V6.4H0.900098C0.457698 6.4 0.100098 6.7584 0.100098 7.2V15.2C0.100098 15.6416 0.457698 16 0.900098 16H12.1001C12.5425 16 12.9001 15.6416 12.9001 15.2V7.2C12.9001 6.7584 12.5425 6.4 12.1001 6.4Z" fill="white"/>
</g>
<defs>
<clipPath id="clip0_11_74">
<rect width="13" height="16" fill="white"/>
</clipPath>
</defs>
</svg>
